<mxfile host="app.diagrams.net" agent="Mozilla/5.0 (Windows NT 10.0; Win64; x64) AppleWebKit/537.36 (KHTML, like Gecko) Chrome/128.0.0.0 Safari/537.36 Edg/128.0.0.0" version="24.7.8">
  <diagram name="Page-1" id="y5qmFZYb7UvDsW7TNttf">
    <mxGraphModel dx="832" dy="471" grid="1" gridSize="10" guides="1" tooltips="1" connect="1" arrows="1" fold="1" page="1" pageScale="1" pageWidth="850" pageHeight="1100" math="0" shadow="0">
      <root>
        <mxCell id="0" />
        <mxCell id="1" parent="0" />
        <mxCell id="FZ54lJDoT5hLsyGjwn3T-29" value="" style="ellipse;whiteSpace=wrap;html=1;aspect=fixed;" parent="1" vertex="1">
          <mxGeometry x="270" y="290" width="40" height="40" as="geometry" />
        </mxCell>
        <mxCell id="FZ54lJDoT5hLsyGjwn3T-1" value="&lt;font style=&quot;font-size: 18px;&quot;&gt;&lt;b&gt;BATTERY&lt;/b&gt;&lt;/font&gt;" style="rounded=1;whiteSpace=wrap;html=1;" parent="1" vertex="1">
          <mxGeometry x="240" y="80" width="120" height="60" as="geometry" />
        </mxCell>
        <mxCell id="FZ54lJDoT5hLsyGjwn3T-2" value="&lt;font style=&quot;font-size: 18px;&quot;&gt;&lt;b&gt;STEP&lt;/b&gt;&lt;/font&gt;&lt;div&gt;&lt;font style=&quot;font-size: 18px;&quot;&gt;&lt;b&gt;DOWN&lt;/b&gt;&lt;/font&gt;&lt;/div&gt;" style="rounded=1;whiteSpace=wrap;html=1;" parent="1" vertex="1">
          <mxGeometry x="240" y="180" width="120" height="60" as="geometry" />
        </mxCell>
        <mxCell id="FZ54lJDoT5hLsyGjwn3T-4" value="&lt;span style=&quot;font-size: 18px;&quot;&gt;&lt;b&gt;ATMEGA&lt;/b&gt;&lt;/span&gt;" style="rounded=1;whiteSpace=wrap;html=1;" parent="1" vertex="1">
          <mxGeometry x="590" y="80" width="120" height="280" as="geometry" />
        </mxCell>
        <mxCell id="FZ54lJDoT5hLsyGjwn3T-5" value="&lt;font style=&quot;font-size: 14px;&quot;&gt;&lt;b&gt;Percentage&lt;/b&gt;&lt;/font&gt;" style="endArrow=classic;html=1;rounded=0;strokeWidth=2;entryX=-0.01;entryY=0.111;entryDx=0;entryDy=0;entryPerimeter=0;" parent="1" target="FZ54lJDoT5hLsyGjwn3T-4" edge="1">
          <mxGeometry x="0.0076" y="21" width="50" height="50" relative="1" as="geometry">
            <mxPoint x="490" y="110" as="sourcePoint" />
            <mxPoint x="440" y="110" as="targetPoint" />
            <mxPoint as="offset" />
          </mxGeometry>
        </mxCell>
        <mxCell id="FZ54lJDoT5hLsyGjwn3T-6" value="&lt;b&gt;&lt;font style=&quot;font-size: 14px;&quot;&gt;12 V&lt;/font&gt;&lt;/b&gt;" style="endArrow=classic;html=1;rounded=0;exitX=0.5;exitY=1;exitDx=0;exitDy=0;strokeWidth=3;entryX=0.5;entryY=0;entryDx=0;entryDy=0;" parent="1" source="FZ54lJDoT5hLsyGjwn3T-1" target="FZ54lJDoT5hLsyGjwn3T-2" edge="1">
          <mxGeometry y="20" width="50" height="50" relative="1" as="geometry">
            <mxPoint x="370" y="120" as="sourcePoint" />
            <mxPoint x="459" y="121" as="targetPoint" />
            <mxPoint as="offset" />
          </mxGeometry>
        </mxCell>
        <mxCell id="FZ54lJDoT5hLsyGjwn3T-7" value="&lt;font style=&quot;font-size: 18px;&quot;&gt;&lt;b style=&quot;&quot;&gt;VOLTAGE&lt;/b&gt;&lt;/font&gt;&lt;div&gt;&lt;font style=&quot;font-size: 18px;&quot;&gt;&lt;b style=&quot;&quot;&gt;DIVIDER&lt;/b&gt;&lt;/font&gt;&lt;/div&gt;" style="rounded=1;whiteSpace=wrap;html=1;" parent="1" vertex="1">
          <mxGeometry x="390" y="80" width="100" height="60" as="geometry" />
        </mxCell>
        <mxCell id="FZ54lJDoT5hLsyGjwn3T-8" value="" style="endArrow=classic;html=1;rounded=0;strokeWidth=3;exitX=1;exitY=0.5;exitDx=0;exitDy=0;" parent="1" source="FZ54lJDoT5hLsyGjwn3T-1" edge="1">
          <mxGeometry x="0.0116" y="11" width="50" height="50" relative="1" as="geometry">
            <mxPoint x="500" y="120" as="sourcePoint" />
            <mxPoint x="390" y="110" as="targetPoint" />
            <mxPoint as="offset" />
          </mxGeometry>
        </mxCell>
        <mxCell id="FZ54lJDoT5hLsyGjwn3T-10" value="" style="endArrow=classic;html=1;rounded=0;strokeWidth=2;exitX=0.75;exitY=1;exitDx=0;exitDy=0;" parent="1" source="FZ54lJDoT5hLsyGjwn3T-2" edge="1">
          <mxGeometry x="0.0116" y="11" width="50" height="50" relative="1" as="geometry">
            <mxPoint x="320" y="270" as="sourcePoint" />
            <mxPoint x="585" y="260" as="targetPoint" />
            <mxPoint as="offset" />
            <Array as="points">
              <mxPoint x="330" y="260" />
            </Array>
          </mxGeometry>
        </mxCell>
        <mxCell id="FZ54lJDoT5hLsyGjwn3T-13" value="&lt;b&gt;&lt;font style=&quot;font-size: 14px;&quot;&gt;5V&lt;/font&gt;&lt;/b&gt;" style="edgeLabel;html=1;align=center;verticalAlign=middle;resizable=0;points=[];" parent="FZ54lJDoT5hLsyGjwn3T-10" vertex="1" connectable="0">
          <mxGeometry x="-0.2899" y="2" relative="1" as="geometry">
            <mxPoint x="33" y="12" as="offset" />
          </mxGeometry>
        </mxCell>
        <mxCell id="FZ54lJDoT5hLsyGjwn3T-11" value="&lt;b&gt;&lt;font style=&quot;font-size: 14px;&quot;&gt;5V&lt;/font&gt;&lt;/b&gt;" style="endArrow=classic;html=1;rounded=0;strokeWidth=2;entryX=0;entryY=0;entryDx=0;entryDy=0;exitX=0.299;exitY=0.999;exitDx=0;exitDy=0;exitPerimeter=0;" parent="1" source="FZ54lJDoT5hLsyGjwn3T-2" target="FZ54lJDoT5hLsyGjwn3T-29" edge="1">
          <mxGeometry x="-0.2" y="10" width="50" height="50" relative="1" as="geometry">
            <mxPoint x="250" y="250" as="sourcePoint" />
            <mxPoint x="270" y="290" as="targetPoint" />
            <mxPoint as="offset" />
            <Array as="points" />
          </mxGeometry>
        </mxCell>
        <mxCell id="FZ54lJDoT5hLsyGjwn3T-15" value="&lt;span style=&quot;font-size: 18px;&quot;&gt;&lt;b&gt;AMS1117&lt;/b&gt;&lt;/span&gt;" style="rounded=1;whiteSpace=wrap;html=1;" parent="1" vertex="1">
          <mxGeometry x="290" y="360" width="120" height="60" as="geometry" />
        </mxCell>
        <mxCell id="FZ54lJDoT5hLsyGjwn3T-16" value="&lt;span style=&quot;font-size: 18px;&quot;&gt;&lt;b&gt;DEVICE&lt;/b&gt;&lt;/span&gt;&lt;div&gt;&lt;span style=&quot;font-size: 18px;&quot;&gt;&lt;b&gt;5V&lt;/b&gt;&lt;/span&gt;&lt;/div&gt;" style="rounded=1;whiteSpace=wrap;html=1;" parent="1" vertex="1">
          <mxGeometry x="130" y="360" width="120" height="60" as="geometry" />
        </mxCell>
        <mxCell id="FZ54lJDoT5hLsyGjwn3T-17" value="&lt;span style=&quot;font-size: 18px;&quot;&gt;&lt;b&gt;DEVICE&lt;/b&gt;&lt;/span&gt;&lt;div&gt;&lt;span style=&quot;font-size: 18px;&quot;&gt;&lt;b&gt;3,3V&lt;/b&gt;&lt;/span&gt;&lt;/div&gt;" style="rounded=1;whiteSpace=wrap;html=1;" parent="1" vertex="1">
          <mxGeometry x="290" y="460" width="120" height="60" as="geometry" />
        </mxCell>
        <mxCell id="FZ54lJDoT5hLsyGjwn3T-18" value="&lt;b&gt;&lt;font style=&quot;font-size: 14px;&quot;&gt;3,3&lt;/font&gt;&lt;/b&gt;&lt;b&gt;&lt;font style=&quot;font-size: 14px;&quot;&gt;V&lt;/font&gt;&lt;/b&gt;" style="endArrow=classic;html=1;rounded=0;strokeWidth=1;exitX=0.25;exitY=1;exitDx=0;exitDy=0;entryX=0.5;entryY=0;entryDx=0;entryDy=0;" parent="1" target="FZ54lJDoT5hLsyGjwn3T-17" edge="1">
          <mxGeometry x="0.017" y="30" width="50" height="50" relative="1" as="geometry">
            <mxPoint x="349.55" y="420" as="sourcePoint" />
            <mxPoint x="360" y="440" as="targetPoint" />
            <mxPoint as="offset" />
            <Array as="points" />
          </mxGeometry>
        </mxCell>
        <mxCell id="FZ54lJDoT5hLsyGjwn3T-21" value="" style="endArrow=none;html=1;rounded=0;entryX=0;entryY=0;entryDx=0;entryDy=0;exitX=0;exitY=1;exitDx=0;exitDy=0;" parent="1" source="FZ54lJDoT5hLsyGjwn3T-29" target="FZ54lJDoT5hLsyGjwn3T-29" edge="1">
          <mxGeometry width="50" height="50" relative="1" as="geometry">
            <mxPoint x="280" y="320" as="sourcePoint" />
            <mxPoint x="280" y="300" as="targetPoint" />
            <Array as="points">
              <mxPoint x="300" y="310" />
            </Array>
          </mxGeometry>
        </mxCell>
        <mxCell id="FZ54lJDoT5hLsyGjwn3T-27" value="" style="endArrow=classic;html=1;rounded=0;strokeWidth=0;" parent="1" edge="1">
          <mxGeometry width="50" height="50" relative="1" as="geometry">
            <mxPoint x="280" y="299" as="sourcePoint" />
            <mxPoint x="290.61" y="304.61" as="targetPoint" />
          </mxGeometry>
        </mxCell>
        <mxCell id="FZ54lJDoT5hLsyGjwn3T-28" value="" style="endArrow=none;html=1;rounded=0;entryX=0.749;entryY=0.09;entryDx=0;entryDy=0;entryPerimeter=0;exitX=0.755;exitY=0.926;exitDx=0;exitDy=0;exitPerimeter=0;" parent="1" source="FZ54lJDoT5hLsyGjwn3T-29" target="FZ54lJDoT5hLsyGjwn3T-29" edge="1">
          <mxGeometry width="50" height="50" relative="1" as="geometry">
            <mxPoint x="300" y="320" as="sourcePoint" />
            <mxPoint x="300" y="300" as="targetPoint" />
          </mxGeometry>
        </mxCell>
        <mxCell id="FZ54lJDoT5hLsyGjwn3T-31" value="" style="endArrow=classic;html=1;rounded=0;strokeWidth=2;exitX=0;exitY=1;exitDx=0;exitDy=0;" parent="1" source="FZ54lJDoT5hLsyGjwn3T-29" edge="1">
          <mxGeometry x="-0.2" y="10" width="50" height="50" relative="1" as="geometry">
            <mxPoint x="270" y="330" as="sourcePoint" />
            <mxPoint x="276" y="350" as="targetPoint" />
            <mxPoint as="offset" />
            <Array as="points" />
          </mxGeometry>
        </mxCell>
        <mxCell id="FZ54lJDoT5hLsyGjwn3T-32" value="" style="endArrow=none;html=1;rounded=0;strokeWidth=2;" parent="1" edge="1">
          <mxGeometry width="50" height="50" relative="1" as="geometry">
            <mxPoint x="190" y="350" as="sourcePoint" />
            <mxPoint x="360" y="350" as="targetPoint" />
          </mxGeometry>
        </mxCell>
        <mxCell id="FZ54lJDoT5hLsyGjwn3T-33" value="" style="endArrow=none;html=1;rounded=0;entryX=0.5;entryY=0;entryDx=0;entryDy=0;strokeWidth=2;" parent="1" target="FZ54lJDoT5hLsyGjwn3T-16" edge="1">
          <mxGeometry width="50" height="50" relative="1" as="geometry">
            <mxPoint x="190" y="350" as="sourcePoint" />
            <mxPoint x="330" y="280" as="targetPoint" />
          </mxGeometry>
        </mxCell>
        <mxCell id="FZ54lJDoT5hLsyGjwn3T-34" value="" style="endArrow=none;html=1;rounded=0;entryX=0.5;entryY=0;entryDx=0;entryDy=0;strokeWidth=2;" parent="1" edge="1">
          <mxGeometry width="50" height="50" relative="1" as="geometry">
            <mxPoint x="360" y="350" as="sourcePoint" />
            <mxPoint x="360" y="360" as="targetPoint" />
          </mxGeometry>
        </mxCell>
        <mxCell id="e7G8CoVLd2_N_ZG4gS4i-1" value="" style="endArrow=classic;html=1;rounded=0;entryX=1;entryY=0.5;entryDx=0;entryDy=0;exitX=-0.022;exitY=0.82;exitDx=0;exitDy=0;exitPerimeter=0;strokeWidth=2;" parent="1" source="FZ54lJDoT5hLsyGjwn3T-4" target="FZ54lJDoT5hLsyGjwn3T-29" edge="1">
          <mxGeometry width="50" height="50" relative="1" as="geometry">
            <mxPoint x="400" y="310" as="sourcePoint" />
            <mxPoint x="450" y="260" as="targetPoint" />
          </mxGeometry>
        </mxCell>
        <mxCell id="e7G8CoVLd2_N_ZG4gS4i-2" value="&lt;b&gt;&lt;font style=&quot;font-size: 14px;&quot;&gt;SWITCHING&lt;/font&gt;&lt;/b&gt;" style="edgeLabel;html=1;align=center;verticalAlign=middle;resizable=0;points=[];" parent="e7G8CoVLd2_N_ZG4gS4i-1" vertex="1" connectable="0">
          <mxGeometry x="-0.0005" y="2" relative="1" as="geometry">
            <mxPoint y="8" as="offset" />
          </mxGeometry>
        </mxCell>
        <mxCell id="e7G8CoVLd2_N_ZG4gS4i-3" value="&lt;font style=&quot;font-size: 18px;&quot;&gt;BC560&lt;/font&gt;" style="text;strokeColor=none;fillColor=none;html=1;fontSize=24;fontStyle=1;verticalAlign=middle;align=center;" parent="1" vertex="1">
          <mxGeometry x="180" y="290" width="100" height="40" as="geometry" />
        </mxCell>
      </root>
    </mxGraphModel>
  </diagram>
</mxfile>
